<svg width="460" height="127" viewBox="0 0 460 127" fill="none" xmlns="http://www.w3.org/2000/svg">
<path opacity="0.2" d="M119.575 8.10498H222.097C230.382 8.10498 237.097 14.8207 237.097 23.105V46.8004C237.097 55.0847 230.382 61.8004 222.097 61.8004H134.575C126.291 61.8004 119.575 55.0847 119.575 46.8004V8.10498Z" fill="#D9D9D9"/>
<path opacity="0.2" d="M363.737 76.9971H292.622C284.338 76.9971 277.622 83.7128 277.622 91.9971V103.535C277.622 111.819 284.338 118.535 292.622 118.535H348.737C357.022 118.535 363.737 111.819 363.737 103.535V76.9971Z" fill="#D9D9D9"/>
<path d="M134.771 28.3674H217.847" stroke="white" stroke-width="5" stroke-linecap="round"/>
<path d="M134.771 40.525H178.336" stroke="white" stroke-width="5" stroke-linecap="round"/>
<path d="M292.818 98.2729H346.514" stroke="white" stroke-width="5" stroke-linecap="round"/>
<circle opacity="0.1" cx="28.456" cy="98.3318" r="23.0634" fill="#FFD14E"/>
<path d="M28.9932 104.662C28.346 104.662 27.7225 104.418 27.2468 103.979C26.7711 103.54 26.4782 102.938 26.4264 102.293C24.7095 101.685 23.2624 100.49 22.3407 98.9196C21.419 97.3487 21.0819 95.5026 21.3889 93.7073C21.6959 91.9121 22.6273 90.2829 24.0187 89.1076C25.41 87.9322 27.1719 87.2862 28.9932 87.2836C30.9304 87.2833 32.797 88.011 34.2228 89.3224C35.6487 90.6337 36.5296 92.433 36.6911 94.3635C36.6964 94.4472 36.6843 94.5312 36.6555 94.61C36.6267 94.6888 36.5818 94.7607 36.5237 94.8213C36.4656 94.8818 36.3956 94.9296 36.318 94.9616C36.2404 94.9936 36.1571 95.0091 36.0732 95.0071C35.9008 95.0028 35.7361 94.9345 35.6112 94.8156C35.4863 94.6966 35.4101 94.5355 35.3974 94.3635C35.2827 93.2253 34.8668 92.1383 34.1925 91.2143C33.5181 90.2903 32.6097 89.5627 31.5607 89.1064C30.5117 88.6502 29.3601 88.4817 28.2244 88.6184C27.0887 88.7551 26.0099 89.192 25.0992 89.8841C24.1884 90.5762 23.4785 91.4986 23.0427 92.5562C22.6068 93.6138 22.4607 94.7685 22.6194 95.9013C22.7781 97.0342 23.2358 98.1043 23.9454 99.0015C24.6551 99.8986 25.591 100.59 26.6569 101.006C26.8508 100.587 27.1539 100.228 27.5344 99.9658C27.9148 99.7041 28.3587 99.5496 28.8194 99.5184C29.2801 99.4872 29.7407 99.5805 30.153 99.7885C30.5652 99.9965 30.914 100.312 31.1627 100.701C31.4113 101.09 31.5508 101.539 31.5664 102C31.582 102.462 31.4731 102.919 31.2513 103.324C31.0295 103.729 30.7028 104.067 30.3056 104.302C29.9083 104.537 29.455 104.662 28.9932 104.662ZM22.5685 101.443H22.6857C23.1877 101.934 23.7451 102.366 24.3488 102.731H22.5685C21.8464 102.731 21.2697 103.306 21.2697 104.018C21.2697 105.703 22.0704 106.958 23.4233 107.819C24.8006 108.698 26.7598 109.167 28.9932 109.167C31.2266 109.167 33.1858 108.698 34.5632 107.819C35.9148 106.957 36.7168 105.704 36.7168 104.018C36.7168 103.677 36.5812 103.349 36.3398 103.108C36.0984 102.866 35.7709 102.731 35.4295 102.731H32.8022C32.8743 102.305 32.8743 101.869 32.8022 101.443H35.4295C36.1123 101.443 36.7672 101.715 37.25 102.197C37.7328 102.68 38.0041 103.335 38.0041 104.018C38.0041 106.195 36.9318 107.836 35.2558 108.906C33.6055 109.957 31.3811 110.454 28.9932 110.454C26.6054 110.454 24.381 109.957 22.7307 108.906C21.0547 107.837 19.9824 106.193 19.9824 104.018C19.9824 102.585 21.1448 101.443 22.5685 101.443ZM34.1423 95.0071C34.1426 95.8781 33.9219 96.735 33.5009 97.4975C33.0799 98.26 32.4724 98.9033 31.7351 99.3671C31.3915 99.0206 30.9852 98.7423 30.538 98.5471C31.3511 98.1922 32.0172 97.5682 32.4244 96.7799C32.8315 95.9916 32.9548 95.0872 32.7736 94.2187C32.5923 93.3502 32.1175 92.5706 31.4291 92.011C30.7406 91.4514 29.8804 91.1459 28.9932 91.1459C28.106 91.1459 27.2459 91.4514 26.5574 92.011C25.869 92.5706 25.3942 93.3502 25.2129 94.2187C25.0317 95.0872 25.155 95.9916 25.5621 96.7799C25.9692 97.5682 26.6354 98.1922 27.4485 98.5471C26.998 98.744 26.5925 99.0234 26.2514 99.3671C25.2736 98.7522 24.531 97.8264 24.1428 96.7385C23.9448 96.1827 23.8438 95.5971 23.8442 95.0071C23.8442 93.6415 24.3867 92.3318 25.3523 91.3662C26.318 90.4006 27.6276 89.8581 28.9932 89.8581C30.3589 89.8581 31.6685 90.4006 32.6342 91.3662C33.5998 92.3318 34.1423 93.6415 34.1423 95.0071Z" fill="#FFD14E"/>
<circle opacity="0.2" cx="28.4553" cy="98.3321" r="27.427" stroke="#FFD14E" stroke-width="2"/>
<circle opacity="0.1" cx="430.663" cy="28.4269" r="23.0634" fill="#FFD14E"/>
<circle opacity="0.2" cx="430.663" cy="28.427" r="27.427" stroke="#FFD14E" stroke-width="2"/>
<path d="M427.445 31.6456H434.954M427.445 26.2821H431.2M433.527 38.5003C438.016 38.2032 441.59 34.5774 441.884 30.0258C441.941 29.1355 441.941 28.2129 441.884 27.3226C441.59 22.7721 438.016 19.1485 433.527 18.8492C431.977 18.747 430.422 18.747 428.872 18.8492C424.383 19.1474 420.809 22.7721 420.515 27.3237C420.458 28.2238 420.458 29.1267 420.515 30.0269C420.623 31.6843 421.355 33.2193 422.219 34.5152C422.72 35.4216 422.389 36.5533 421.867 37.5434C421.491 38.2568 421.303 38.6129 421.454 38.8704C421.604 39.1278 421.942 39.1364 422.617 39.1525C423.952 39.1847 424.852 38.8071 425.567 38.2804C425.971 37.9811 426.174 37.832 426.313 37.8148C426.453 37.7977 426.728 37.9114 427.278 38.1366C427.771 38.3405 428.345 38.466 428.871 38.5014C430.399 38.6022 431.997 38.6022 433.528 38.5014" stroke="#FFD14E" stroke-width="1.5" stroke-linecap="round" stroke-linejoin="round"/>
</svg>
